<svg width="16" height="17" viewBox="0 0 16 17" fill="none" xmlns="http://www.w3.org/2000/svg">
<path d="M8.37505 0.663513C11.75 0.663513 14.5056 3.3258 14.6216 6.70439L14.6251 6.91351V10.3277L15.7751 12.9577C15.8326 13.0893 15.8623 13.2314 15.8623 13.375C15.8623 13.9503 15.3959 14.4167 14.8206 14.4167L10.8751 14.4179C10.8751 15.7986 9.75576 16.9179 8.37505 16.9179C7.04365 16.9179 5.95534 15.8771 5.8793 14.5648L5.87467 14.416L1.93744 14.4167C1.79466 14.4167 1.6534 14.3873 1.52244 14.3304C0.994769 14.1012 0.752812 13.4877 0.982011 12.96L2.12505 10.3284V6.91342C2.12555 3.4511 4.91846 0.663513 8.37505 0.663513ZM9.62467 14.416L7.12505 14.4179C7.12505 15.1083 7.6847 15.6679 8.37505 15.6679C9.0248 15.6679 9.55876 15.1722 9.61933 14.5383L9.62467 14.416ZM8.37505 1.91351C5.60825 1.91351 3.37545 4.14206 3.37505 6.91351V10.5882L2.25507 13.1667H14.5022L13.3751 10.589L13.3751 6.92423L13.372 6.73656C13.2795 4.042 11.0764 1.91351 8.37505 1.91351Z" fill="black"/>
</svg>
