<svg width="21" height="14" viewBox="0 0 21 14" fill="none" xmlns="http://www.w3.org/2000/svg">
<path d="M0.625 2.75C0.625 1.23122 1.85622 0 3.375 0H17.875C19.3938 0 20.625 1.23122 20.625 2.75V4.5H0.625V2.75ZM0.625 6H20.625V11.25C20.625 12.7688 19.3938 14 17.875 14H3.375C1.85622 14 0.625 12.7688 0.625 11.25V6ZM14.375 9.5C13.9608 9.5 13.625 9.83579 13.625 10.25C13.625 10.6642 13.9608 11 14.375 11H16.875C17.2892 11 17.625 10.6642 17.625 10.25C17.625 9.83579 17.2892 9.5 16.875 9.5H14.375Z" fill="#1942F4"/>
</svg>
