<svg width="13" height="18" viewBox="0 0 13 18" fill="none" xmlns="http://www.w3.org/2000/svg">
<path d="M6.62508 0.666687C9.84674 0.666687 12.4584 3.27836 12.4584 6.50002C12.4584 8.08917 11.823 9.5299 10.7923 10.582L10.7911 16.7085C10.7911 17.1851 10.2856 17.4755 9.88088 17.265L9.80633 17.2196L6.62429 14.9798L3.44395 17.2195C3.05424 17.494 2.5257 17.2478 2.46486 16.7956L2.45909 16.7085L2.45789 10.582C1.42721 9.5299 0.791748 8.08917 0.791748 6.50002C0.791748 3.27836 3.40342 0.666687 6.62508 0.666687ZM9.54108 15.5043L9.54126 11.5532C8.68337 12.0494 7.68739 12.3334 6.62508 12.3334C5.56278 12.3334 4.5668 12.0494 3.7089 11.5532L3.70909 15.5039L6.26433 13.7044C6.45315 13.5714 6.69725 13.5548 6.89992 13.6545L6.98395 13.7043L9.54108 15.5043L9.54126 11.5532L9.54108 15.5043ZM6.62508 1.91669C4.09378 1.91669 2.04175 3.96872 2.04175 6.50002C2.04175 9.03133 4.09378 11.0834 6.62508 11.0834C9.15639 11.0834 11.2084 9.03133 11.2084 6.50002C11.2084 3.96872 9.15639 1.91669 6.62508 1.91669Z" fill="black"/>
</svg>
