<svg width="48" height="48" viewBox="0 0 48 48" fill="none" xmlns="http://www.w3.org/2000/svg">
<path d="M24.0001 0.666504C36.8871 0.666504 47.3334 11.1152 47.3334 23.9998C47.3334 36.8845 36.8871 47.3332 24.0001 47.3332C11.1131 47.3332 0.666748 36.8845 0.666748 23.9998C0.666748 11.1152 11.1131 0.666504 24.0001 0.666504ZM24.0001 4.55617C13.2784 4.55617 4.55642 13.2782 4.55642 23.9998C4.55642 34.7215 13.2784 43.4435 24.0001 43.4435C34.7217 43.4435 43.4438 34.7215 43.4438 23.9998C43.4438 13.2782 34.7217 4.55617 24.0001 4.55617ZM23.997 29.8384C25.2839 29.8384 26.3272 30.8817 26.3272 32.1686C26.3272 33.4555 25.2839 34.4988 23.997 34.4988C22.71 34.4988 21.6667 33.4555 21.6667 32.1686C21.6667 30.8817 22.71 29.8384 23.997 29.8384ZM23.9872 12.3332C24.8731 12.3325 25.6058 12.9902 25.7224 13.8443L25.7386 14.0818L25.747 24.5855C25.7477 25.552 24.9649 26.3361 23.9984 26.3369C23.1124 26.3376 22.3797 25.6798 22.2631 24.8257L22.247 24.5883L22.2386 14.0846C22.2378 13.1181 23.0207 12.3339 23.9872 12.3332Z" fill="#FF754B"/>
</svg>
