<svg width="18" height="18" viewBox="0 0 18 18" fill="none" xmlns="http://www.w3.org/2000/svg">
<path d="M15 0C16.6569 0 18 1.34315 18 3V15C18 16.6569 16.6569 18 15 18H3C1.34315 18 0 16.6569 0 15V3C0 1.34315 1.34315 0 3 0H15ZM13.4697 4.96967L7 11.4393L4.53033 8.96967C4.23744 8.67678 3.76256 8.67678 3.46967 8.96967C3.17678 9.26256 3.17678 9.73744 3.46967 10.0303L6.46967 13.0303C6.76256 13.3232 7.23744 13.3232 7.53033 13.0303L14.5303 6.03033C14.8232 5.73744 14.8232 5.26256 14.5303 4.96967C14.2374 4.67678 13.7626 4.67678 13.4697 4.96967Z" fill="#1942F4"/>
</svg>
