<svg width="17" height="18" viewBox="0 0 17 18" fill="none" xmlns="http://www.w3.org/2000/svg">
<path fill-rule="evenodd" clip-rule="evenodd" d="M6.09508 13.1672C6.24175 13.3005 6.40175 13.3672 6.57508 13.3672C6.76175 13.3672 6.92175 13.3005 7.05508 13.1672C7.20175 13.0472 7.27508 12.9005 7.27508 12.7272V10.6872C7.27508 10.2872 7.44175 10.0872 7.77508 10.0872H9.11508C9.82175 10.0872 10.4217 9.85382 10.9151 9.38715C11.4217 8.92049 11.6751 8.29382 11.6751 7.50715C11.6751 7.00049 11.5551 6.57382 11.3151 6.22716C11.0751 5.88049 10.7551 5.62049 10.3551 5.44715C9.96842 5.26049 9.54842 5.16715 9.09508 5.16715H6.97508C6.69508 5.16715 6.44175 5.26049 6.21508 5.44715C5.98842 5.63382 5.87508 5.90715 5.87508 6.26715V12.7272C5.87508 12.9005 5.94842 13.0472 6.09508 13.1672ZM8.89508 8.88715H7.67508C7.38175 8.88715 7.23508 8.70715 7.23508 8.34715V6.86715C7.23508 6.54715 7.40175 6.38715 7.73508 6.38715H8.97508C9.30842 6.38715 9.61508 6.48715 9.89508 6.68716C10.1884 6.87382 10.3351 7.16049 10.3351 7.54715C10.3351 8.04049 10.1751 8.38716 9.85508 8.58715C9.54842 8.78715 9.22842 8.88715 8.89508 8.88715Z" fill="black"/>
<path fill-rule="evenodd" clip-rule="evenodd" d="M16.7098 9.00064C16.7098 4.39755 12.9782 0.666016 8.37515 0.666016C3.77207 0.666016 0.0405273 4.39755 0.0405273 9.00064C0.0405273 13.6037 3.77207 17.3353 8.37515 17.3353C12.9782 17.3353 16.7098 13.6037 16.7098 9.00064ZM1.29053 9.00064C1.29053 5.08791 4.46242 1.91602 8.37515 1.91602C12.2879 1.91602 15.4598 5.08791 15.4598 9.00064C15.4598 12.9134 12.2879 16.0853 8.37515 16.0853C4.46242 16.0853 1.29053 12.9134 1.29053 9.00064Z" fill="black"/>
</svg>
