<svg width="14" height="18" viewBox="0 0 14 18" fill="none" xmlns="http://www.w3.org/2000/svg">
<path d="M11.9202 10.667C12.9552 10.667 13.7942 11.506 13.7942 12.541V13.3064C13.7942 13.7842 13.6449 14.2501 13.3671 14.6388C12.0788 16.4415 9.97525 17.3346 7.12502 17.3346C4.27421 17.3346 2.17174 16.4411 0.88661 14.6375C0.609975 14.2493 0.461304 13.7844 0.461304 13.3077V12.541C0.461304 11.506 1.30035 10.667 2.33537 10.667H11.9202ZM7.12502 0.670898C9.4262 0.670898 11.2917 2.53638 11.2917 4.83757C11.2917 7.13875 9.4262 9.00423 7.12502 9.00423C4.82383 9.00423 2.95835 7.13875 2.95835 4.83757C2.95835 2.53638 4.82383 0.670898 7.12502 0.670898Z" fill="#1942F4"/>
</svg>
