<svg width="16" height="16" viewBox="0 0 16 16" fill="none" xmlns="http://www.w3.org/2000/svg">
<path d="M13 0.5C14.3807 0.5 15.5 1.61929 15.5 3V13C15.5 14.3807 14.3807 15.5 13 15.5H3C1.61929 15.5 0.5 14.3807 0.5 13V3C0.5 1.61929 1.61929 0.5 3 0.5H13ZM11.7247 4.64139L6.33333 10.0328L4.27527 7.97473C4.0312 7.73065 3.63547 7.73065 3.39139 7.97473C3.14731 8.2188 3.14731 8.61453 3.39139 8.85861L5.89139 11.3586C6.13547 11.6027 6.5312 11.6027 6.77527 11.3586L12.6086 5.52527C12.8527 5.2812 12.8527 4.88547 12.6086 4.64139C12.3645 4.39731 11.9688 4.39731 11.7247 4.64139Z" fill="black"/>
</svg>
