<svg width="19" height="19" viewBox="0 0 19 19" fill="none" xmlns="http://www.w3.org/2000/svg">
<path d="M10.748 0.00134277L18.3018 0.00185585L18.402 0.0157738L18.5009 0.0433707L18.562 0.069303C18.641 0.104195 18.7149 0.154725 18.7798 0.219654L18.8206 0.263695L18.8811 0.345174L18.9183 0.410197L18.957 0.500513L18.9761 0.56464L18.9897 0.628581L18.999 0.721777L18.9996 8.25523C18.9996 8.66945 18.6638 9.00523 18.2496 9.00523C17.8699 9.00523 17.5561 8.72308 17.5064 8.357L17.4996 8.25523L17.499 2.55934L3.55905 16.5043L9.24957 16.5052C9.62927 16.5052 9.94306 16.7874 9.99273 17.1535L9.99957 17.2552C9.99957 17.6349 9.71742 17.9487 9.35134 17.9984L9.24957 18.0052L1.71372 18.0045L1.68473 18.0016C1.61867 17.997 1.55596 17.9832 1.49668 17.9621L1.40655 17.9232L1.38936 17.9127C1.18516 17.8023 1.03871 17.5992 1.00529 17.3599L0.998047 17.2552V9.75134C0.998047 9.33713 1.33383 9.00134 1.74805 9.00134C2.12774 9.00134 2.44154 9.2835 2.4912 9.64957L2.49805 9.75134V15.4433L16.438 1.50034L10.748 1.50134C10.3684 1.50134 10.0546 1.21919 10.0049 0.853113L9.99805 0.751343C9.99805 0.371647 10.2802 0.0578519 10.6463 0.00818944L10.748 0.00134277Z" fill="black"/>
</svg>
