<svg width="16" height="17" viewBox="0 0 16 17" fill="none" xmlns="http://www.w3.org/2000/svg">
<path d="M14.6216 6.70396C14.5056 3.32537 11.75 0.663086 8.37505 0.663086C4.91846 0.663086 2.12555 3.45067 2.12505 6.913V10.328L0.982011 12.9596C0.752812 13.4872 0.994769 14.1008 1.52244 14.33C1.6534 14.3869 1.79466 14.4162 1.93744 14.4162L5.87467 14.4156L5.8793 14.5644C5.95534 15.8767 7.04365 16.9175 8.37505 16.9175C9.75576 16.9175 10.8751 15.7982 10.8751 14.4175L14.8206 14.4162C15.3959 14.4162 15.8623 13.9499 15.8623 13.3746C15.8623 13.2309 15.8326 13.0888 15.7751 12.9572L14.6251 10.3272V6.91309L14.6216 6.70396Z" fill="#1942F4"/>
</svg>
