<svg width="14" height="14" viewBox="0 0 14 14" fill="none" xmlns="http://www.w3.org/2000/svg">
<path d="M6.99992 0.333252C10.6818 0.333252 13.6666 3.31802 13.6666 6.99992C13.6666 10.6818 10.6818 13.6666 6.99992 13.6666C3.31802 13.6666 0.333252 10.6818 0.333252 6.99992C0.333252 3.31802 3.31802 0.333252 6.99992 0.333252ZM6.99992 1.33325C3.87031 1.33325 1.33325 3.87031 1.33325 6.99992C1.33325 10.1295 3.87031 12.6666 6.99992 12.6666C10.1295 12.6666 12.6666 10.1295 12.6666 6.99992C12.6666 3.87031 10.1295 1.33325 6.99992 1.33325ZM6.99992 3.66659C7.27606 3.66659 7.49992 3.89044 7.49992 4.16659V6.49992H9.83325C10.1094 6.49992 10.3333 6.72378 10.3333 6.99992C10.3333 7.27606 10.1094 7.49992 9.83325 7.49992H7.49992V9.83325C7.49992 10.1094 7.27606 10.3333 6.99992 10.3333C6.72378 10.3333 6.49992 10.1094 6.49992 9.83325V7.49992H4.16659C3.89044 7.49992 3.66659 7.27606 3.66659 6.99992C3.66659 6.72378 3.89044 6.49992 4.16659 6.49992H6.49992V4.16659C6.49992 3.89044 6.72378 3.66659 6.99992 3.66659Z" fill="black"/>
</svg>
