<svg width="14" height="18" viewBox="0 0 14 18" fill="none" xmlns="http://www.w3.org/2000/svg">
<path d="M11.92 10.6666C12.9551 10.6666 13.7941 11.5057 13.7941 12.5407V13.0202C13.7941 13.7654 13.5278 14.4861 13.0432 15.0523C11.7354 16.5802 9.74605 17.3342 7.1249 17.3342C4.50334 17.3342 2.515 16.5799 1.20975 15.0514C0.726614 14.4856 0.461182 13.7661 0.461182 13.0221V12.5407C0.461182 11.5057 1.30023 10.6666 2.33525 10.6666H11.92ZM11.92 11.9166H2.33525C1.99058 11.9166 1.71118 12.196 1.71118 12.5407V13.0221C1.71118 13.4685 1.87044 13.9002 2.16032 14.2397C3.20475 15.4627 4.84298 16.0842 7.1249 16.0842C9.40682 16.0842 11.0465 15.4627 12.0935 14.2394C12.3843 13.8997 12.5441 13.4673 12.5441 13.0202V12.5407C12.5441 12.196 12.2647 11.9166 11.92 11.9166ZM7.1249 0.670532C9.42608 0.670532 11.2916 2.53601 11.2916 4.8372C11.2916 7.13839 9.42608 9.00387 7.1249 9.00387C4.82371 9.00387 2.95823 7.13839 2.95823 4.8372C2.95823 2.53601 4.82371 0.670532 7.1249 0.670532ZM7.1249 1.92053C5.51407 1.92053 4.20823 3.22637 4.20823 4.8372C4.20823 6.44803 5.51407 7.75387 7.1249 7.75387C8.73573 7.75387 10.0416 6.44803 10.0416 4.8372C10.0416 3.22637 8.73573 1.92053 7.1249 1.92053Z" fill="black"/>
</svg>
