<svg width="21" height="14" viewBox="0 0 21 14" fill="none" xmlns="http://www.w3.org/2000/svg">
<path d="M14.375 9.5C13.9608 9.5 13.625 9.83579 13.625 10.25C13.625 10.6642 13.9608 11 14.375 11H16.875C17.2892 11 17.625 10.6642 17.625 10.25C17.625 9.83579 17.2892 9.5 16.875 9.5H14.375ZM3.375 0C1.85622 0 0.625 1.23122 0.625 2.75V11.25C0.625 12.7688 1.85622 14 3.375 14H17.875C19.3938 14 20.625 12.7688 20.625 11.25V2.75C20.625 1.23122 19.3938 0 17.875 0H3.375ZM2.125 11.25V6H19.125V11.25C19.125 11.9404 18.5654 12.5 17.875 12.5H3.375C2.68464 12.5 2.125 11.9404 2.125 11.25ZM2.125 4.5V2.75C2.125 2.05964 2.68464 1.5 3.375 1.5H17.875C18.5654 1.5 19.125 2.05964 19.125 2.75V4.5H2.125Z" fill="#212121"/>
</svg>
