<svg width="48" height="48" viewBox="0 0 48 48" fill="none" xmlns="http://www.w3.org/2000/svg">
<path d="M24 0.666504C36.8866 0.666504 47.3333 11.1132 47.3333 23.9998C47.3333 36.8865 36.8866 47.3332 24 47.3332C11.1133 47.3332 0.666626 36.8865 0.666626 23.9998C0.666626 11.1132 11.1133 0.666504 24 0.666504ZM24 4.1665C13.0463 4.1665 4.16663 13.0462 4.16663 23.9998C4.16663 34.9535 13.0463 43.8332 24 43.8332C34.9536 43.8332 43.8333 34.9535 43.8333 23.9998C43.8333 13.0462 34.9536 4.1665 24 4.1665ZM21.0833 27.3583L31.5125 16.9291C32.1959 16.2457 33.304 16.2457 33.9874 16.9291C34.6087 17.5504 34.6652 18.5226 34.1568 19.2077L33.9874 19.4039L22.3207 31.0706C21.6994 31.6919 20.7272 31.7484 20.0421 31.2401L19.8459 31.0706L14.0125 25.2373C13.3291 24.5539 13.3291 23.4458 14.0125 22.7624C14.6338 22.1411 15.606 22.0846 16.2911 22.593L16.4874 22.7624L21.0833 27.3583L31.5125 16.9291L21.0833 27.3583Z" fill="#68F394"/>
</svg>
