<svg width="14" height="14" viewBox="0 0 14 14" fill="none" xmlns="http://www.w3.org/2000/svg">
<path d="M6.99998 0.333496C10.682 0.333496 13.6666 3.31883 13.6666 7.00016C13.6666 10.6815 10.682 13.6668 6.99998 13.6668C3.31798 13.6668 0.333313 10.6815 0.333313 7.00016C0.333313 3.31883 3.31798 0.333496 6.99998 0.333496ZM6.99998 1.44483C3.93665 1.44483 1.44465 3.93683 1.44465 7.00016C1.44465 10.0635 3.93665 12.5555 6.99998 12.5555C10.0633 12.5555 12.5553 10.0635 12.5553 7.00016C12.5553 3.93683 10.0633 1.44483 6.99998 1.44483ZM6.99909 8.66832C7.36679 8.66832 7.66486 8.9664 7.66486 9.3341C7.66486 9.70179 7.36679 9.99987 6.99909 9.99987C6.63139 9.99987 6.33331 9.70179 6.33331 9.3341C6.33331 8.9664 6.63139 8.66832 6.99909 8.66832ZM6.99629 3.66683C7.24942 3.66663 7.45877 3.85456 7.49207 4.09859L7.49669 4.16643L7.49909 7.16749C7.49931 7.44363 7.27563 7.66767 6.99949 7.66789C6.74636 7.66809 6.53701 7.48016 6.50371 7.23614L6.49909 7.16829L6.49669 4.16723C6.49647 3.89109 6.72015 3.66705 6.99629 3.66683Z" fill="#00ADA1"/>
</svg>
