<svg width="13" height="18" viewBox="0 0 13 18" fill="none" xmlns="http://www.w3.org/2000/svg">
<path d="M10.7931 11.7037L10.7925 16.7046C10.7925 17.211 10.2218 17.5071 9.80775 17.2157L6.62572 14.9758L3.44538 17.2156C3.03131 17.5072 2.46051 17.211 2.46051 16.7046L2.45899 11.7053C3.60024 12.6199 5.04877 13.167 6.62508 13.167C8.20228 13.167 9.65155 12.6193 10.7931 11.7037ZM6.62508 0.666992C9.84674 0.666992 12.4584 3.27866 12.4584 6.50033C12.4584 9.72199 9.84674 12.3337 6.62508 12.3337C3.40342 12.3337 0.791748 9.72199 0.791748 6.50033C0.791748 3.27866 3.40342 0.666992 6.62508 0.666992Z" fill="#1942F4"/>
</svg>
