<svg width="16" height="18" viewBox="0 0 16 18" fill="none" xmlns="http://www.w3.org/2000/svg">
<path d="M11.542 3.31659C11.3327 3.59106 11.3855 3.98325 11.66 4.19257C13.1503 5.32913 14.0416 7.09001 14.0416 8.99984C14.0416 12.1132 11.6867 14.6765 8.66101 15.0058L9.22464 14.4418C9.46872 14.1977 9.46872 13.802 9.22464 13.5579C9.00275 13.336 8.65553 13.3158 8.41086 13.4974L8.34076 13.5579L6.67409 15.2246C6.4522 15.4465 6.43203 15.7937 6.61358 16.0383L6.67409 16.1084L8.34076 17.7751C8.58484 18.0192 8.98057 18.0192 9.22464 17.7751C9.44653 17.5532 9.4667 17.206 9.28516 16.9613L9.22464 16.8912L8.59945 16.2672C12.3461 15.9623 15.2916 12.8251 15.2916 8.99984C15.2916 6.69589 14.2151 4.56918 12.418 3.19864C12.1436 2.98932 11.7514 3.04213 11.542 3.31659ZM6.77519 0.224562C6.53112 0.46864 6.53112 0.864368 6.77519 1.10845L7.39956 1.73253C3.65332 2.03784 0.708252 5.17491 0.708252 8.99984C0.708252 11.2036 1.69263 13.2477 3.35893 14.6241C3.62505 14.8439 4.019 14.8064 4.23883 14.5403C4.45865 14.2741 4.42112 13.8802 4.155 13.6604C2.77319 12.519 1.95825 10.8267 1.95825 8.99984C1.95825 5.88681 4.31268 3.32368 7.33799 2.99402L6.77519 3.5579C6.53112 3.80197 6.53112 4.1977 6.77519 4.44178C7.01927 4.68586 7.415 4.68586 7.65908 4.44178L9.32574 2.77511C9.56982 2.53103 9.56982 2.13531 9.32574 1.89123L7.65908 0.224562C7.415 -0.0195155 7.01927 -0.0195155 6.77519 0.224562Z" fill="#1942F4"/>
</svg>
