<svg width="17" height="18" viewBox="0 0 17 18" fill="none" xmlns="http://www.w3.org/2000/svg">
<path d="M7.67508 8.88715H8.89508C9.22842 8.88715 9.54842 8.78715 9.85508 8.58715C10.1751 8.38716 10.3351 8.04049 10.3351 7.54715C10.3351 7.16049 10.1884 6.87382 9.89508 6.68716C9.61508 6.48715 9.30842 6.38715 8.97508 6.38715H7.73508C7.40175 6.38715 7.23508 6.54715 7.23508 6.86715V8.34715C7.23508 8.70715 7.38175 8.88715 7.67508 8.88715Z" fill="#1942F4"/>
<path fill-rule="evenodd" clip-rule="evenodd" d="M16.7098 9.00064C16.7098 4.39755 12.9782 0.666016 8.37515 0.666016C3.77207 0.666016 0.0405273 4.39755 0.0405273 9.00064C0.0405273 13.6037 3.77207 17.3353 8.37515 17.3353C12.9782 17.3353 16.7098 13.6037 16.7098 9.00064ZM6.57508 13.3672C6.40175 13.3672 6.24175 13.3005 6.09508 13.1672C5.94842 13.0472 5.87508 12.9005 5.87508 12.7272V6.26715C5.87508 5.90715 5.98842 5.63382 6.21508 5.44715C6.44175 5.26049 6.69508 5.16715 6.97508 5.16715H9.09508C9.54842 5.16715 9.96842 5.26049 10.3551 5.44715C10.7551 5.62049 11.0751 5.88049 11.3151 6.22716C11.5551 6.57382 11.6751 7.00049 11.6751 7.50715C11.6751 8.29382 11.4217 8.92049 10.9151 9.38715C10.4217 9.85382 9.82175 10.0872 9.11508 10.0872H7.77508C7.44175 10.0872 7.27508 10.2872 7.27508 10.6872V12.7272C7.27508 12.9005 7.20175 13.0472 7.05508 13.1672C6.92175 13.3005 6.76175 13.3672 6.57508 13.3672Z" fill="#1942F4"/>
</svg>
