<svg width="16" height="17" viewBox="0 0 16 17" fill="none" xmlns="http://www.w3.org/2000/svg">
<path d="M6.65583 1.1116C7.35396 0.521382 8.37597 0.520666 9.07492 1.10991L14.7085 5.85929C15.1311 6.21555 15.375 6.74011 15.375 7.29283V15.4583C15.375 16.2637 14.7221 16.9166 13.9167 16.9166H1.83333C1.02792 16.9166 0.375 16.2637 0.375 15.4583V7.29177C0.375 6.73997 0.618065 6.21618 1.03945 5.85992L6.65583 1.1116ZM8.26923 2.06561C8.03624 1.86919 7.69557 1.86943 7.46286 2.06617L1.84648 6.81449C1.70602 6.93324 1.625 7.10784 1.625 7.29177V15.4583C1.625 15.5734 1.71827 15.6666 1.83333 15.6666H13.9167C14.0317 15.6666 14.125 15.5734 14.125 15.4583V7.29283C14.125 7.10859 14.0437 6.93374 13.9028 6.81499L8.26923 2.06561Z" fill="black"/>
</svg>
