<svg width="6" height="8" viewBox="0 0 6 8" fill="none" xmlns="http://www.w3.org/2000/svg">
<path d="M3.00002 0.666748C1.84826 0.666748 0.916687 1.59833 0.916687 2.75008C0.916687 2.92267 1.0566 3.06258 1.22919 3.06258C1.40178 3.06258 1.54169 2.92267 1.54169 2.75008C1.54169 1.9435 2.19344 1.29175 3.00002 1.29175C3.8066 1.29175 4.45835 1.9435 4.45835 2.75008C4.45835 3.10499 4.36607 3.34156 4.23799 3.52489C4.10301 3.71809 3.91847 3.86788 3.69561 4.0383C3.6767 4.05276 3.65751 4.06735 3.63808 4.08212C3.21705 4.4022 2.68752 4.80476 2.68752 5.66675V5.77091C2.68752 5.9435 2.82743 6.08341 3.00002 6.08341C3.17261 6.08341 3.31252 5.9435 3.31252 5.77091V5.66675C3.31252 5.11787 3.61001 4.89045 4.05641 4.54919L4.07526 4.53478C4.29511 4.36666 4.55328 4.16489 4.75034 3.88283C4.95429 3.5909 5.08335 3.22851 5.08335 2.75008C5.08335 1.59833 4.15178 0.666748 3.00002 0.666748ZM3.00002 7.75008C3.23014 7.75008 3.41669 7.56353 3.41669 7.33341C3.41669 7.1033 3.23014 6.91675 3.00002 6.91675C2.7699 6.91675 2.58335 7.1033 2.58335 7.33341C2.58335 7.56353 2.7699 7.75008 3.00002 7.75008Z" fill="#868686"/>
</svg>
