<svg width="22" height="21" viewBox="0 0 22 21" fill="none" xmlns="http://www.w3.org/2000/svg">
<path d="M11 -0.000976562C16.5237 -0.000976562 21.0015 4.47687 21.0015 10.0006C21.0015 15.5243 16.5237 20.0021 11 20.0021C5.47626 20.0021 0.998413 15.5243 0.998413 10.0006C0.998413 4.47687 5.47626 -0.000976562 11 -0.000976562ZM11 1.49902C6.30469 1.49902 2.49841 5.3053 2.49841 10.0006C2.49841 14.6959 6.30469 18.5021 11 18.5021C15.6952 18.5021 19.5015 14.6959 19.5015 10.0006C19.5015 5.3053 15.6952 1.49902 11 1.49902ZM10.9963 8.49961C11.376 8.49936 11.69 8.78131 11.7399 9.14735L11.7468 9.24911L11.7504 14.7507C11.7507 15.1649 11.4151 15.5009 11.0009 15.5012C10.6212 15.5014 10.3072 15.2195 10.2573 14.8535L10.2504 14.7517L10.2468 9.2501C10.2465 8.83588 10.5821 8.49988 10.9963 8.49961ZM11.0004 5.00184C11.552 5.00184 11.9991 5.44896 11.9991 6.0005C11.9991 6.55205 11.552 6.99917 11.0004 6.99917C10.4489 6.99917 10.0017 6.55205 10.0017 6.0005C10.0017 5.44896 10.4489 5.00184 11.0004 5.00184Z" fill="#FF754B"/>
</svg>
