<svg width="12" height="12" viewBox="0 0 12 12" fill="none" xmlns="http://www.w3.org/2000/svg">
<path d="M10.9481 0.633671C11.1718 0.857408 11.1906 1.20853 11.0042 1.45354L10.9483 1.51755L6.67681 5.79046L10.9507 10.0644C11.1948 10.3085 11.1948 10.7042 10.9507 10.9483C10.727 11.172 10.3758 11.1906 10.1308 11.0042L10.0668 10.9483L5.79292 6.67434L1.52255 10.9471C1.27852 11.1913 0.882743 11.1914 0.638666 10.9473C0.414928 10.7236 0.396166 10.3724 0.582565 10.1274L0.638486 10.0634L4.90904 5.79046L0.637526 1.51894C0.393448 1.27487 0.393448 0.879137 0.637526 0.63506C0.861264 0.411322 1.21243 0.392677 1.45741 0.579125L1.52141 0.63506L5.79292 4.90657L10.0642 0.63385C10.3083 0.389723 10.704 0.389593 10.9481 0.633671Z" fill="black"/>
</svg>
