<svg width="4" height="6" viewBox="0 0 4 6" fill="none" xmlns="http://www.w3.org/2000/svg">
<path d="M2.00004 0.333252C1.07864 0.333252 0.333374 1.07851 0.333374 1.99992C0.333374 2.13799 0.445303 2.24992 0.583374 2.24992C0.721445 2.24992 0.833374 2.13799 0.833374 1.99992C0.833374 1.35466 1.35478 0.833252 2.00004 0.833252C2.6453 0.833252 3.16671 1.35466 3.16671 1.99992C3.16671 2.28384 3.09288 2.4731 2.99041 2.61976C2.88243 2.77432 2.7348 2.89415 2.55651 3.0305C2.54139 3.04206 2.52603 3.05374 2.51049 3.06555C2.17367 3.32161 1.75004 3.64366 1.75004 4.33325V4.41658C1.75004 4.55466 1.86197 4.66658 2.00004 4.66658C2.13811 4.66658 2.25004 4.55466 2.25004 4.41658V4.33325C2.25004 3.89415 2.48803 3.71222 2.84515 3.43921L2.86024 3.42767C3.03611 3.29318 3.24265 3.13176 3.40029 2.90612C3.56345 2.67257 3.66671 2.38266 3.66671 1.99992C3.66671 1.07851 2.92145 0.333252 2.00004 0.333252ZM2.00004 5.99992C2.18414 5.99992 2.33337 5.85068 2.33337 5.66658C2.33337 5.48249 2.18414 5.33325 2.00004 5.33325C1.81595 5.33325 1.66671 5.48249 1.66671 5.66658C1.66671 5.85068 1.81595 5.99992 2.00004 5.99992Z" fill="#B1B1B1"/>
</svg>
