<svg width="6" height="9" viewBox="0 0 6 9" fill="none" xmlns="http://www.w3.org/2000/svg">
<path d="M3 0C1.61789 0 0.5 1.11789 0.5 2.5C0.5 2.70711 0.667893 2.875 0.875 2.875C1.08211 2.875 1.25 2.70711 1.25 2.5C1.25 1.53211 2.03211 0.75 3 0.75C3.96789 0.75 4.75 1.53211 4.75 2.5C4.75 2.92589 4.63925 3.20977 4.48556 3.42977C4.32359 3.66161 4.10214 3.84135 3.83471 4.04587C3.81202 4.06321 3.78898 4.08073 3.76567 4.09845C3.26044 4.48254 2.625 4.96562 2.625 6V6.125C2.625 6.33211 2.79289 6.5 3 6.5C3.20711 6.5 3.375 6.33211 3.375 6.125V6C3.375 5.34135 3.73198 5.06845 4.26767 4.65893L4.29029 4.64163C4.55411 4.4399 4.86391 4.19777 5.10038 3.8593C5.34512 3.50898 5.5 3.07411 5.5 2.5C5.5 1.11789 4.38211 0 3 0ZM3 8.5C3.27614 8.5 3.5 8.27614 3.5 8C3.5 7.72386 3.27614 7.5 3 7.5C2.72386 7.5 2.5 7.72386 2.5 8C2.5 8.27614 2.72386 8.5 3 8.5Z" fill="#868686"/>
</svg>
