<svg width="14" height="14" viewBox="0 0 14 14" fill="none" xmlns="http://www.w3.org/2000/svg">
<path d="M9.83333 0C11.03 0 12 0.97005 12 2.16667V6.01385C11.6912 5.81628 11.3556 5.65679 11 5.54201V3.66667H1V9.83333C1 10.4777 1.52233 11 2.16667 11H5.54235C5.59877 11.1748 5.666 11.3448 5.74325 11.5091L5.59379 12H2.16667C0.97005 12 0 11.03 0 9.83333V2.16667C0 0.97005 0.97005 0 2.16667 0H9.83333ZM9.83333 1H2.16667C1.52233 1 1 1.52233 1 2.16667V2.66667H11V2.16667C11 1.52233 10.4777 1 9.83333 1ZM11 6.24956C11.3655 6.39214 11.7024 6.59164 12 6.83717C12.8152 7.50984 13.3348 8.52803 13.3348 9.66748C13.3348 11.693 11.6929 13.335 9.66742 13.335C9.02233 13.335 8.41614 13.1684 7.88951 12.8759L6.43142 13.3196C6.17624 13.3973 5.93772 13.1587 6.01542 12.9036L6.45927 11.4459C6.16665 10.9191 6 10.3128 6 9.66748C6 7.68103 7.57926 6.06346 9.55072 6.00183C9.5837 6.00079 9.61679 6.0002 9.64999 6.00004C9.6558 6.00001 9.66161 6 9.66742 6C10.1375 6 10.587 6.0884 11 6.24956ZM11.001 9.33407C11.1852 9.33407 11.3344 9.1848 11.3344 9.00066C11.3344 8.81653 11.1852 8.66726 11.001 8.66726H8.33381C8.14968 8.66726 8.00041 8.81653 8.00041 9.00066C8.00041 9.1848 8.14968 9.33407 8.33381 9.33407H11.001ZM8.33381 10.6677H9.66742C9.85155 10.6677 10.0008 10.5184 10.0008 10.3343C10.0008 10.1502 9.85155 10.0009 9.66742 10.0009H8.33381C8.14968 10.0009 8.00041 10.1502 8.00041 10.3343C8.00041 10.5184 8.14968 10.6677 8.33381 10.6677ZM8.01846 5.6581C8.47865 5.46861 8.97862 5.35605 9.50237 5.33642C9.35048 5.13226 9.10736 5 8.83333 5C8.43321 5 8.09894 5.282 8.01846 5.6581ZM5.37667 9.0531C5.44556 8.56762 5.59489 8.10803 5.81074 7.68825C5.44168 7.77396 5.16667 8.10486 5.16667 8.5C5.16667 8.71225 5.24602 8.90597 5.37667 9.0531ZM3.16667 7.66667C3.6269 7.66667 4 8.03976 4 8.5C4 8.96024 3.6269 9.33333 3.16667 9.33333C2.70643 9.33333 2.33333 8.96024 2.33333 8.5C2.33333 8.03976 2.70643 7.66667 3.16667 7.66667ZM3.16667 5C3.6269 5 4 5.3731 4 5.83333C4 6.29357 3.6269 6.66667 3.16667 6.66667C2.70643 6.66667 2.33333 6.29357 2.33333 5.83333C2.33333 5.3731 2.70643 5 3.16667 5ZM6 5C6.46024 5 6.83333 5.3731 6.83333 5.83333C6.83333 6.29357 6.46024 6.66667 6 6.66667C5.53976 6.66667 5.16667 6.29357 5.16667 5.83333C5.16667 5.3731 5.53976 5 6 5Z" fill="#FFB743"/>
</svg>
