<svg width="28" height="28" viewBox="0 0 28 28" fill="none" xmlns="http://www.w3.org/2000/svg">
<path d="M14.0001 0.666748C21.3641 0.666748 27.3334 6.63741 27.3334 14.0001C27.3334 21.3627 21.3641 27.3334 14.0001 27.3334C6.63608 27.3334 0.666748 21.3627 0.666748 14.0001C0.666748 6.63741 6.63608 0.666748 14.0001 0.666748ZM14.0001 2.88941C7.87341 2.88941 2.88941 7.87341 2.88941 14.0001C2.88941 20.1267 7.87341 25.1107 14.0001 25.1107C20.1267 25.1107 25.1107 20.1267 25.1107 14.0001C25.1107 7.87341 20.1267 2.88941 14.0001 2.88941ZM13.9983 17.3364C14.7337 17.3364 15.3298 17.9326 15.3298 18.6679C15.3298 19.4033 14.7337 19.9995 13.9983 19.9995C13.2629 19.9995 12.6667 19.4033 12.6667 18.6679C12.6667 17.9326 13.2629 17.3364 13.9983 17.3364ZM13.9927 7.33342C14.499 7.33301 14.9177 7.70888 14.9843 8.19693L14.9935 8.33262L14.9983 14.3347C14.9987 14.887 14.5514 15.3351 13.9991 15.3355C13.4928 15.3359 13.0741 14.9601 13.0075 14.472L12.9983 14.3363L12.9935 8.33422C12.9931 7.78193 13.4404 7.33386 13.9927 7.33342Z" fill="#FF754B"/>
</svg>
