<svg width="20" height="20" viewBox="0 0 20 20" fill="none" xmlns="http://www.w3.org/2000/svg">
<path d="M14.7222 11.1111C13.9552 11.1111 13.3333 10.4893 13.3333 9.72222C13.3333 8.95516 13.9552 8.33333 14.7222 8.33333C15.4893 8.33333 16.1111 8.95516 16.1111 9.72222C16.1111 10.4893 15.4893 11.1111 14.7222 11.1111ZM8.61111 9.72222C8.61111 10.4893 9.23294 11.1111 10 11.1111C10.7671 11.1111 11.3889 10.4893 11.3889 9.72222C11.3889 8.95516 10.7671 8.33333 10 8.33333C9.23294 8.33333 8.61111 8.95516 8.61111 9.72222ZM5.27778 11.1111C4.51072 11.1111 3.88889 10.4893 3.88889 9.72222C3.88889 8.95516 4.51072 8.33333 5.27778 8.33333C6.04484 8.33333 6.66667 8.95516 6.66667 9.72222C6.66667 10.4893 6.04484 11.1111 5.27778 11.1111ZM13.3333 14.1667C13.3333 14.9337 13.9552 15.5556 14.7222 15.5556C15.4893 15.5556 16.1111 14.9337 16.1111 14.1667C16.1111 13.3996 15.4893 12.7778 14.7222 12.7778C13.9552 12.7778 13.3333 13.3996 13.3333 14.1667ZM10 15.5556C9.23294 15.5556 8.61111 14.9337 8.61111 14.1667C8.61111 13.3996 9.23294 12.7778 10 12.7778C10.7671 12.7778 11.3889 13.3996 11.3889 14.1667C11.3889 14.9337 10.7671 15.5556 10 15.5556ZM20 3.47222C20 1.55457 18.4454 0 16.5278 0H3.47222C1.55457 0 0 1.55457 0 3.47222V16.5278C0 18.4454 1.55457 20 3.47222 20H16.5278C18.4454 20 20 18.4454 20 16.5278V3.47222ZM16.5278 1.38889C17.6784 1.38889 18.6111 2.32163 18.6111 3.47222V4.44444H1.38889V3.47222C1.38889 2.32163 2.32163 1.38889 3.47222 1.38889H16.5278ZM18.6111 16.5278C18.6111 17.6784 17.6784 18.6111 16.5278 18.6111H3.47222C2.32163 18.6111 1.38889 17.6784 1.38889 16.5278V5.83333H18.6111V16.5278Z" fill="black"/>
</svg>
